<svg width="144" height="46" viewBox="0 0 144 46" fill="none" xmlns="http://www.w3.org/2000/svg">
<path d="M16.55 31.1L14.35 33C12.45 32.1667 9.96666 30.2833 6.89999 27.35C3.86666 24.3833 1.61666 21.6167 0.149994 19.05C1.61666 16.4833 3.86666 13.7333 6.89999 10.8C9.96666 7.83333 12.45 5.93333 14.35 5.1L16.55 6.95C15.15 10.55 12.4667 14.5833 8.49999 19.05C12.5333 23.65 15.2167 27.6667 16.55 31.1Z" fill="black"/>
<path d="M46.8824 1.55V8.7L43.7324 9.1C43.2991 8.76667 42.8824 8.06667 42.4824 7H36.4824V30.2C37.8158 30.7333 38.7324 31.2833 39.2324 31.85L38.7324 36H27.0324L26.5324 31.85C26.9657 31.2833 27.8824 30.7333 29.2824 30.2V7H23.2824C22.8824 8.06667 22.4657 8.76667 22.0324 9.1L18.8824 8.7V1.55H46.8824Z" fill="black"/>
<path d="M75.941 11.6C75.941 13.8667 75.2243 15.7667 73.791 17.3C72.391 18.8333 70.6243 20 68.491 20.8C70.1577 21.5 71.2577 22.35 71.791 23.35L75.441 30.3C77.0077 30.8333 78.0743 31.45 78.641 32.15L78.141 36H69.691L63.941 23.75C63.4077 22.5167 62.791 21.9 62.091 21.9H58.841V29.9C61.2743 30.4333 62.791 31.0833 63.391 31.85L62.891 36H49.391L48.891 31.85C49.3243 31.2833 50.241 30.7333 51.641 30.2V7.35C50.2743 6.85 49.3577 6.28333 48.891 5.65L49.391 1.5H62.141C66.8077 1.56667 70.2743 2.31667 72.541 3.75C74.8077 5.18333 75.941 7.8 75.941 11.6ZM61.791 6.95H58.841V16.45H61.691C63.9577 16.45 65.641 16.1167 66.741 15.45C67.8743 14.75 68.441 13.5167 68.441 11.75C68.441 9.98333 67.8743 8.75 66.741 8.05C65.6077 7.31667 63.9577 6.95 61.791 6.95Z" fill="black"/>
<path d="M94.9156 36.3H89.4156L81.2156 16.8C79.549 16.2667 78.4323 15.6167 77.8656 14.85L78.3656 11H89.8656L90.3656 14.85C89.9323 15.3833 89.2156 15.8667 88.2156 16.3L90.9156 23.85C91.5156 25.4167 91.949 26.9667 92.2156 28.5L92.3156 29.2H93.0156C93.2823 27.5333 93.749 25.7833 94.4156 23.95L97.0656 16.55C95.8323 16.0833 94.9656 15.5167 94.4656 14.85L94.9656 11H105.966L106.466 14.85C105.866 15.6167 104.766 16.2667 103.166 16.8L94.9156 36.3Z" fill="black"/>
<path d="M106.128 45.45C105.728 44.75 105.528 43.6 105.528 42C105.528 41.5667 105.661 41.05 105.928 40.45L119.378 0L122.678 0.549999C122.911 0.916667 123.061 1.48333 123.128 2.25C123.228 2.98333 123.278 3.56667 123.278 4C123.278 4.43333 123.145 4.96667 122.878 5.6L109.428 46L106.128 45.45Z" fill="black"/>
<path d="M128.932 33L126.732 31.1C127.966 27.8333 130.632 23.8167 134.732 19.05C130.699 14.4167 128.032 10.3833 126.732 6.95L128.932 5.1C130.832 5.93333 133.299 7.83333 136.332 10.8C139.399 13.7333 141.666 16.4833 143.132 19.05C141.666 21.6167 139.399 24.3833 136.332 27.35C133.299 30.2833 130.832 32.1667 128.932 33Z" fill="black"/>
</svg>
