<svg width="281" height="318" viewBox="0 0 281 318" fill="none" xmlns="http://www.w3.org/2000/svg">
<path d="M195.762 232.632L195.773 232.596L195.763 232.641L195.762 232.632ZM197.421 258.856L195.763 232.649C195.798 232.806 201.242 257.186 205.834 272.431C204.493 272.564 203.213 272.759 202.009 273.018L197.421 258.856ZM126.454 474.958V471.805C126.454 471.805 126.283 471.787 125.98 471.764L125.345 403.45L133.899 472.077H135.49C132.321 472.532 129.052 473.392 126.454 474.958ZM256.379 305.568H212.553L212.296 304.774H224.622C225.666 304.774 226.512 303.973 226.512 302.986V296.559C226.512 295.57 225.666 294.77 224.622 294.77H216.734C218.141 294.191 219.466 293.507 220.66 292.696C220.66 292.696 229.705 296.419 232.236 289.052C232.236 289.052 233.065 283.639 229.147 278.953C230.365 271.738 223.432 255.89 220.439 245.34C217.294 234.251 211.851 216.296 207.298 207.13C217.296 203.789 222.395 199.161 224.991 195.257C304.938 169.587 278.506 70.6299 239.84 36.166C233.675 30.6708 227.569 26.1809 221.57 22.5596C221.122 21.9691 220.649 21.4105 220.142 20.891C202.439 2.75496 156.388 -8.37135 106.424 36.166C67.758 70.6299 41.3256 169.587 121.273 195.257C122.632 197.3 124.683 199.541 127.755 201.693H6.48408C4.58976 201.693 3.55925 203.143 4.18122 204.933L34.7742 293.07C35.3953 294.86 37.4334 296.31 39.3259 296.31H39.925C39.9121 296.392 39.8975 296.473 39.8975 296.559V302.986C39.8975 303.973 40.7439 304.774 41.7891 304.774H133.196L132.939 305.568H11.8034V320.146H134.215C133.793 322.074 133.383 324.043 132.996 326.041C132.949 326.043 132.9 326.047 132.854 326.049L107.262 345.385C100.31 350.295 99.8872 356.501 99.966 358.608C99.5116 361.993 99.9403 364.981 99.9403 364.981L113.289 472.077H114.88C110.605 472.689 106.138 474.037 103.398 476.868C98.1724 482.269 101.394 484 101.394 484H147.064V471.805C147.064 471.805 146.892 471.787 146.589 471.764L145.634 369.001L155.591 369.013C155.829 369.394 155.918 369.598 155.918 369.598C155.918 369.598 200.976 371.764 212.073 368.306C225.508 364.121 219.279 333.858 214.834 325.791C214.055 324.377 213.208 322.413 212.339 320.146H256.379C257.898 320.146 259.127 318.983 259.127 317.548V308.165C259.127 306.731 257.898 305.568 256.379 305.568Z" fill="#666666"/>
<path d="M195.762 232.632L195.773 232.596L195.763 232.641L195.762 232.632ZM197.421 258.856L195.763 232.649C195.798 232.806 201.242 257.186 205.834 272.431C204.493 272.564 203.213 272.759 202.009 273.018L197.421 258.856ZM126.454 474.958V471.805C126.454 471.805 126.283 471.787 125.98 471.764L125.345 403.45L133.899 472.077H135.49C132.321 472.532 129.052 473.392 126.454 474.958ZM256.379 305.568H212.553L212.296 304.774H224.622C225.666 304.774 226.512 303.973 226.512 302.986V296.559C226.512 295.57 225.666 294.77 224.622 294.77H216.734C218.141 294.191 219.466 293.507 220.66 292.696C220.66 292.696 229.705 296.419 232.236 289.052C232.236 289.052 233.065 283.639 229.147 278.953C230.365 271.738 223.432 255.89 220.439 245.34C217.294 234.251 211.851 216.296 207.298 207.13C217.296 203.789 222.395 199.161 224.991 195.257C304.938 169.587 278.506 70.6299 239.84 36.166C233.675 30.6708 227.569 26.1809 221.57 22.5596C221.122 21.9691 220.649 21.4105 220.142 20.891C202.439 2.75496 156.388 -8.37135 106.424 36.166C67.758 70.6299 41.3256 169.587 121.273 195.257C122.632 197.3 124.683 199.541 127.755 201.693H6.48408C4.58976 201.693 3.55925 203.143 4.18122 204.933L34.7742 293.07C35.3953 294.86 37.4334 296.31 39.3259 296.31H39.925C39.9121 296.392 39.8975 296.473 39.8975 296.559V302.986C39.8975 303.973 40.7439 304.774 41.7891 304.774H133.196L132.939 305.568H11.8034V320.146H134.215C133.793 322.074 133.383 324.043 132.996 326.041C132.949 326.043 132.9 326.047 132.854 326.049L107.262 345.385C100.31 350.295 99.8872 356.501 99.966 358.608C99.5116 361.993 99.9403 364.981 99.9403 364.981L113.289 472.077H114.88C110.605 472.689 106.138 474.037 103.398 476.868C98.1724 482.269 101.394 484 101.394 484H147.064V471.805C147.064 471.805 146.892 471.787 146.589 471.764L145.634 369.001L155.591 369.013C155.829 369.394 155.918 369.598 155.918 369.598C155.918 369.598 200.976 371.764 212.073 368.306C225.508 364.121 219.279 333.858 214.834 325.791C214.055 324.377 213.208 322.413 212.339 320.146H256.379C257.898 320.146 259.127 318.983 259.127 317.548V308.165C259.127 306.731 257.898 305.568 256.379 305.568Z" stroke="#666666" stroke-width="8" stroke-linecap="round" stroke-linejoin="round"/>
<path d="M239.84 36.166C233.675 30.6708 227.569 26.1809 221.57 22.5596C221.122 21.9691 220.649 21.4097 220.142 20.891C202.439 2.75496 156.388 -8.37135 106.424 36.166C67.758 70.6299 41.3256 169.587 121.273 195.256C125.907 202.226 138.504 211.504 172.746 211.644V211.649C172.876 211.649 173.002 211.646 173.133 211.646C173.263 211.646 173.388 211.649 173.518 211.649V211.644C207.76 211.504 220.358 202.226 224.991 195.257C304.937 169.587 278.505 70.6299 239.84 36.166Z" fill="#CC8757"/>
<path d="M239.84 36.166C233.675 30.6708 227.569 26.1809 221.57 22.5596C221.122 21.9691 220.649 21.4097 220.142 20.891C202.439 2.75496 156.388 -8.37135 106.424 36.166C67.758 70.6299 41.3256 169.587 121.273 195.256C125.907 202.226 138.504 211.504 172.746 211.644V211.649C172.876 211.649 173.002 211.646 173.133 211.646C173.263 211.646 173.388 211.649 173.518 211.649V211.644C207.76 211.504 220.358 202.226 224.991 195.257C304.937 169.587 278.505 70.6299 239.84 36.166Z" stroke="#666666" stroke-width="4" stroke-linecap="round" stroke-linejoin="round"/>
<path d="M172.891 300.128L198.862 298.522L175.295 211.621L172.746 211.98L170.197 211.621L146.629 298.522L172.601 300.128V300.146L172.746 300.137L172.891 300.146V300.128Z" fill="white"/>
<path d="M172.891 300.128L198.862 298.522L175.295 211.621L172.746 211.98L170.197 211.621L146.629 298.522L172.601 300.128V300.146L172.746 300.137L172.891 300.146V300.128Z" stroke="black" stroke-width="4"/>
<path d="M198.526 281.398H146.965L143.091 292.019H202.401L198.526 281.398Z" fill="#666666"/>
<path d="M198.526 281.398H146.965L143.091 292.019H202.401L198.526 281.398Z" stroke="#666666" stroke-width="4" stroke-linecap="round" stroke-linejoin="round"/>
<path d="M149.73 232.632L148.07 258.856L129.733 315.465L157.275 317.19L157.282 317.191L157.658 317.209C158.789 317.23 162.186 317.013 163.926 313.804C166.03 309.922 165.814 300.608 165.814 300.608L172.746 198.289C172.746 198.289 151.119 196.848 142.191 201.535C141.589 201.851 140.959 202.437 140.31 203.254" fill="url(#paint0_linear_40_5)"/>
<path d="M149.73 232.632L148.07 258.856L129.733 315.465L157.275 317.19H157.276C157.276 317.19 157.281 317.19 157.282 317.191L157.658 317.209C158.789 317.23 162.186 317.013 163.926 313.804C166.03 309.922 165.814 300.608 165.814 300.608L172.746 198.289C172.746 198.289 151.119 196.848 142.191 201.535C141.589 201.851 140.959 202.437 140.31 203.254" stroke="#666666" stroke-width="4" stroke-linecap="round" stroke-linejoin="round"/>
<path d="M195.762 232.632L197.421 258.856L215.759 315.465L188.216 317.19L188.21 317.191L187.833 317.209C186.702 317.23 183.305 317.013 181.566 313.804C179.462 309.922 179.677 300.608 179.677 300.608L172.746 198.289C172.746 198.289 194.372 196.848 203.3 201.535C203.902 201.851 204.533 202.437 205.182 203.254" fill="url(#paint1_linear_40_5)"/>
<path d="M195.762 232.632L197.421 258.856L215.759 315.465L188.216 317.19H188.215C188.215 317.19 188.211 317.19 188.21 317.191L187.833 317.209C186.702 317.23 183.305 317.013 181.566 313.804C179.462 309.922 179.677 300.608 179.677 300.608L172.746 198.289C172.746 198.289 194.372 196.848 203.3 201.535C203.902 201.851 204.533 202.437 205.182 203.254" stroke="#666666" stroke-width="4" stroke-linecap="round" stroke-linejoin="round"/>
<path d="M179.938 198.896L178.691 186.444L172.746 182.79L166.801 186.444L165.553 198.896L157.351 199.368C157.351 199.368 163.471 212.016 172.746 212.016C182.022 212.016 188.141 199.368 188.141 199.368L179.938 198.896Z" fill="#FFECD0"/>
<path d="M179.938 198.896L178.691 186.444L172.746 182.79L166.801 186.444L165.553 198.896L157.351 199.368C157.351 199.368 163.471 212.016 172.746 212.016C182.022 212.016 188.141 199.368 188.141 199.368L179.938 198.896Z" stroke="#666666" stroke-width="4" stroke-linecap="round" stroke-linejoin="round"/>
<path d="M203.3 201.535C208.124 204.067 216.286 230.695 220.439 245.34C223.464 256.003 230.519 272.083 229.11 279.187C227.278 288.424 213.621 291.663 209.187 282.001C204.495 271.779 195.762 232.643 195.762 232.643" fill="url(#paint2_linear_40_5)"/>
<path d="M203.3 201.535C208.124 204.067 216.286 230.695 220.439 245.34C223.464 256.003 230.519 272.083 229.11 279.187C227.278 288.424 213.621 291.663 209.187 282.001C204.495 271.779 195.762 232.643 195.762 232.643" stroke="#666666" stroke-width="4" stroke-linecap="round" stroke-linejoin="round"/>
<path d="M232.236 289.052C232.236 289.052 234.583 273.758 212.774 272.33C190.965 270.903 182.718 285.183 186.841 292.357C189.841 297.578 210.154 299.835 220.66 292.696C220.66 292.696 229.705 296.419 232.236 289.052Z" fill="#FFECD0"/>
<path d="M232.236 289.052C232.236 289.052 234.583 273.758 212.774 272.33C190.965 270.903 182.718 285.183 186.841 292.357C189.841 297.578 210.154 299.835 220.66 292.696C220.66 292.696 229.705 296.419 232.236 289.052Z" stroke="#666666" stroke-width="4" stroke-linecap="round" stroke-linejoin="round"/>
<path d="M207.336 285.763C207.336 285.763 205.286 288.677 206.352 291.895C208.106 297.187 206.352 291.895 206.352 291.895" fill="#7B8394"/>
<path d="M207.336 285.763C207.336 285.763 205.286 288.677 206.352 291.895C208.106 297.187 206.352 291.895 206.352 291.895" stroke="#666666" stroke-width="4" stroke-linecap="round" stroke-linejoin="round"/>
<path d="M198.767 283.138C198.767 283.138 194.951 285.498 195.527 291.413C196.422 300.621 195.527 291.413 195.527 291.413" fill="#7B8394"/>
<path d="M198.767 283.138C198.767 283.138 194.951 285.498 195.527 291.413C196.422 300.621 195.527 291.413 195.527 291.413" stroke="#666666" stroke-width="4" stroke-linecap="round" stroke-linejoin="round"/>
<path d="M214.834 325.791C210.39 317.723 203.693 291.921 203.693 291.921H141.798C141.798 291.921 136.507 307.956 132.996 326.041C132.949 326.043 132.9 326.047 132.854 326.049L106.207 346.182C106.207 346.182 118.061 343.194 133.939 352.142C153.051 362.911 155.918 369.598 155.918 369.598C155.918 369.598 200.976 371.764 212.073 368.306C225.508 364.121 219.279 333.858 214.834 325.791Z" fill="#FFD961"/>
<path d="M214.834 325.791C210.39 317.723 203.693 291.921 203.693 291.921H141.798C141.798 291.921 136.507 307.956 132.996 326.041C132.949 326.043 132.9 326.047 132.854 326.049L106.207 346.182C106.207 346.182 118.061 343.194 133.939 352.142C153.051 362.911 155.918 369.598 155.918 369.598C155.918 369.598 200.976 371.764 212.073 368.306C225.508 364.121 219.279 333.858 214.834 325.791Z" stroke="#666666" stroke-width="4" stroke-linecap="round" stroke-linejoin="round"/>
<path d="M11.8034 320.146H256.379C257.898 320.146 259.127 318.983 259.127 317.548V308.165C259.127 306.731 257.898 305.568 256.379 305.568H11.8034V320.146Z" fill="#DBDBDB"/>
<path d="M11.8034 320.146H256.379C257.898 320.146 259.127 318.983 259.127 317.548V308.165C259.127 306.731 257.898 305.568 256.379 305.568H11.8034V320.146Z" stroke="#F4F4F4" stroke-width="4" stroke-linecap="round" stroke-linejoin="round"/>
<path d="M107.608 109.353C107.608 109.353 81.8298 104.324 81.8298 126.357C81.8298 139.317 90.7051 145.202 108.95 145.449" fill="#FFECD0"/>
<path d="M107.608 109.353C107.608 109.353 81.8298 104.324 81.8298 126.357C81.8298 139.317 90.7051 145.202 108.95 145.449" stroke="#666666" stroke-width="4" stroke-linecap="round" stroke-linejoin="round"/>
<path d="M91.6532 127.549C91.6532 127.549 95.0333 126.074 98.253 126.093Z" fill="#FFECD0"/>
<path d="M91.6532 127.549C91.6532 127.549 95.0333 126.074 98.253 126.093" stroke="#666666" stroke-width="4" stroke-linecap="round" stroke-linejoin="round"/>
<path d="M237.883 109.353C237.883 109.353 263.662 104.324 263.662 126.357C263.662 139.317 254.788 145.202 236.543 145.449" fill="#FFECD0"/>
<path d="M237.883 109.353C237.883 109.353 263.662 104.324 263.662 126.357C263.662 139.317 254.788 145.202 236.543 145.449" stroke="#666666" stroke-width="4" stroke-linecap="round" stroke-linejoin="round"/>
<path d="M253.84 127.549C253.84 127.549 250.461 126.074 247.24 126.093Z" fill="#FFECD0"/>
<path d="M253.84 127.549C253.84 127.549 250.461 126.074 247.24 126.093" stroke="#666666" stroke-width="4" stroke-linecap="round" stroke-linejoin="round"/>
<path d="M172.746 193.839C62.1282 193.839 72.8309 23.2974 172.746 23.2974C272.661 23.2974 283.364 193.839 172.746 193.839Z" fill="#FFECD0"/>
<path d="M172.746 193.839C62.1282 193.839 72.8309 23.2974 172.746 23.2974C272.661 23.2974 283.364 193.839 172.746 193.839Z" stroke="#666666" stroke-width="4" stroke-linecap="round" stroke-linejoin="round"/>
<path d="M169.157 141.433C169.157 141.433 167.935 146.628 172.746 146.34" stroke="#666666" stroke-width="4" stroke-linecap="round" stroke-linejoin="round"/>
<path d="M194.351 157.771C194.351 157.771 187.008 166.292 172.746 166.292C158.485 166.292 151.143 157.771 151.143 157.771" stroke="#666666" stroke-width="4" stroke-linecap="round" stroke-linejoin="round"/>
<path d="M197.738 76.6906C197.738 76.6906 200.566 72.361 207.173 72.361C211.923 72.361 216.792 77.9895 216.792 77.9895" stroke="#666666" stroke-width="4" stroke-linecap="round" stroke-linejoin="round"/>
<path d="M211.14 112.64C211.14 119.244 208.814 124.598 205.946 124.598C203.08 124.598 200.754 119.244 200.754 112.64C200.754 106.035 203.08 100.683 205.946 100.683C208.814 100.683 211.14 106.035 211.14 112.64Z" fill="#666666"/>
<path d="M219.934 42.6526C219.934 42.6526 228.287 100.074 257.289 106.711C257.289 106.711 249.669 28.7354 219.934 42.6526Z" fill="#CC8757"/>
<path d="M220.308 44.7335C220.308 44.7335 230.878 101.37 254.694 107.72Z" fill="#CC8757"/>
<path d="M220.308 44.7335C220.308 44.7335 230.878 101.37 254.694 107.72" stroke="#666666" stroke-width="4" stroke-linecap="round" stroke-linejoin="round"/>
<path d="M221.107 39.0235C221.107 39.0235 189.536 0.759021 127.371 29.5027C97.9315 43.1142 84.3168 106.567 84.3168 106.567C84.3168 106.567 163.398 82.6092 189.046 67.0225C202.618 58.7745 221.107 39.0235 221.107 39.0235Z" fill="#CC8757"/>
<path d="M223.195 37.7446C214.074 54.896 164.925 92.7111 125.099 96.4485Z" fill="#CC8757"/>
<path d="M223.195 37.7446C214.074 54.896 164.925 92.7111 125.099 96.4485" stroke="#666666" stroke-width="4" stroke-linecap="round" stroke-linejoin="round"/>
<path d="M175.915 40.7571C164.312 66.1574 138.455 102.448 87.369 107.144Z" fill="#CC8757"/>
<path d="M175.915 40.7571C164.312 66.1574 138.455 102.448 87.369 107.144" stroke="#666666" stroke-width="4" stroke-linecap="round" stroke-linejoin="round"/>
<path d="M147.755 76.6906C147.755 76.6906 144.928 72.361 138.32 72.361C133.568 72.361 128.702 77.9895 128.702 77.9895" stroke="#666666" stroke-width="4" stroke-linecap="round" stroke-linejoin="round"/>
<path d="M134.354 112.64C134.354 119.244 136.678 124.598 139.546 124.598C142.413 124.598 144.738 119.244 144.738 112.64C144.738 106.035 142.413 100.683 139.546 100.683C136.678 100.683 134.354 106.035 134.354 112.64Z" fill="#666666"/>
<path d="M39.8975 302.986C39.8975 303.973 40.7439 304.774 41.7891 304.774H224.622C225.666 304.774 226.512 303.973 226.512 302.986V296.558C226.512 295.57 225.666 294.769 224.622 294.769H41.7891C40.7439 294.769 39.8975 295.57 39.8975 296.558V302.986Z" fill="#DBDBDB"/>
<path d="M39.8975 302.986C39.8975 303.973 40.7439 304.774 41.7891 304.774H224.622C225.666 304.774 226.512 303.973 226.512 302.986V296.558C226.512 295.57 225.666 294.769 224.622 294.769H41.7891C40.7439 294.769 39.8975 295.57 39.8975 296.558V302.986Z" stroke="#666666" stroke-width="4" stroke-linecap="round" stroke-linejoin="round"/>
<path d="M34.7742 293.07C35.3953 294.86 37.4334 296.31 39.3259 296.31H169.58C171.473 296.31 172.504 294.86 171.883 293.07L141.291 204.933C140.67 203.143 138.633 201.693 136.737 201.693H6.48408C4.58976 201.693 3.55925 203.143 4.18122 204.933L34.7742 293.07Z" fill="#DBDBDB"/>
<path d="M34.7742 293.07C35.3953 294.86 37.4334 296.31 39.3259 296.31H169.58C171.473 296.31 172.504 294.86 171.883 293.07L141.291 204.933C140.67 203.143 138.633 201.693 136.737 201.693H6.48408C4.58976 201.693 3.55925 203.143 4.18122 204.933L34.7742 293.07Z" stroke="#666666" stroke-width="4" stroke-linecap="round" stroke-linejoin="round"/>
<path d="M161.943 288.003L135.58 212.052C134.959 210.262 132.92 208.811 131.027 208.811H13.9413" stroke="#666666" stroke-width="4" stroke-linecap="round" stroke-linejoin="round"/>
<defs>
<linearGradient id="paint0_linear_40_5" x1="151.239" y1="198.08" x2="151.239" y2="317.21" gradientUnits="userSpaceOnUse">
<stop stop-color="#520DFF"/>
<stop offset="1" stop-color="#76ABFF"/>
</linearGradient>
<linearGradient id="paint1_linear_40_5" x1="194.253" y1="198.08" x2="194.253" y2="317.21" gradientUnits="userSpaceOnUse">
<stop stop-color="#5622FE"/>
<stop offset="1" stop-color="#3D86FF"/>
</linearGradient>
<linearGradient id="paint2_linear_40_5" x1="212.528" y1="201.535" x2="212.528" y2="287.86" gradientUnits="userSpaceOnUse">
<stop stop-color="#5620FE"/>
<stop offset="1" stop-color="#3D86FF"/>
</linearGradient>
</defs>
</svg>
